<svg width="1319" height="720" viewBox="0 0 1319 720" fill="none" xmlns="http://www.w3.org/2000/svg">
<path fill-rule="evenodd" clip-rule="evenodd" d="M403.847 618.703C396.672 620.409 388.887 622.202 382.49 623.673L392.199 601.732L403.847 618.703ZM381.044 586.582L350.707 651.504C350.193 652.609 351.148 653.831 352.345 653.596L370.1 650.098C370.578 650.003 370.978 649.682 371.176 649.239L375.875 638.618C385.496 636.618 401.625 632.698 411.706 630.156L417.121 638.045C417.478 638.564 418.124 638.801 418.731 638.64L434.383 634.493C435.372 634.232 435.808 633.077 435.24 632.227L401.819 582.146C401.475 581.63 400.848 581.381 400.242 581.523L382.055 585.762C381.61 585.866 381.238 586.169 381.044 586.582V586.582Z" fill="white"/>
<path fill-rule="evenodd" clip-rule="evenodd" d="M519.513 547.563L501.219 553.288C500.809 553.416 500.475 553.716 500.302 554.107L477.708 604.928L452.164 568.87C451.802 568.354 451.155 568.12 450.547 568.288L435.416 572.468C434.428 572.742 434.004 573.909 434.589 574.752L468.6 623.787C468.967 624.317 469.634 624.55 470.25 624.365L487.031 619.37C487.431 619.248 487.763 618.966 487.947 618.589L521.299 549.634C521.867 548.459 520.757 547.174 519.513 547.563" fill="white"/>
<path fill-rule="evenodd" clip-rule="evenodd" d="M610.828 530.983L610.826 519.605C610.826 518.591 609.83 517.872 608.868 518.192L545.631 539.175C545.021 539.376 544.611 539.946 544.611 540.59L544.607 599.202C544.607 600.218 545.603 600.935 546.566 600.617L609.804 579.628C610.414 579.426 610.826 578.856 610.826 578.215V564.889C610.826 563.869 609.832 563.149 608.866 563.476C592.376 569.087 561.251 579.682 561.251 579.682V569.121C575.145 564.527 600.816 555.992 606.208 554.2C606.816 553.999 607.216 553.431 607.216 552.791L607.214 542.304C607.214 541.288 606.218 540.569 605.254 540.89L561.251 555.554V548.87C561.251 548.87 591.663 538.512 609.825 532.389C610.431 532.185 610.828 531.622 610.828 530.983" fill="white"/>
<path fill-rule="evenodd" clip-rule="evenodd" d="M270.281 608.419C270.281 604.578 277.025 600.488 288.365 600.488C298.805 600.488 310.514 604.204 318.158 608.871C319.067 609.425 320.236 608.876 320.394 607.823C321.315 601.673 322.176 594.843 322.486 592.345C322.558 591.744 322.271 591.164 321.743 590.866C312.515 585.654 300.765 582.553 288.349 582.553C269.692 582.553 248.989 591.363 248.989 609.631C248.989 633.992 305.289 635.629 305.289 646.503C305.289 650.983 297.856 652.996 288.253 652.996C273.368 652.996 259.443 648.068 249.542 639.736C248.581 638.927 247.119 639.623 247.119 640.879V658.981C247.119 659.431 247.313 659.86 247.663 660.146C256.731 667.552 271.086 672.66 288.365 672.66C309.998 672.66 325.715 660.018 325.715 644.287C325.715 620.68 270.281 617.196 270.281 608.419" fill="white"/>
<path fill-rule="evenodd" clip-rule="evenodd" d="M686.933 474.757L673.264 479.337C672.657 479.543 672.248 480.111 672.248 480.752V566.837C672.248 567.855 673.247 568.574 674.213 568.248L689.167 563.213L727.695 550.834C728.295 550.642 728.709 550.091 728.728 549.461L729.185 533.153C729.217 532.07 728.131 531.312 727.132 531.729C720.898 534.334 702.251 542.043 689.119 546.624L688.897 476.165C688.894 475.15 687.898 474.434 686.933 474.757" fill="white"/>
<path fill-rule="evenodd" clip-rule="evenodd" d="M753.123 471.112L753.121 529.733C753.121 530.742 754.105 531.459 755.066 531.151L768.996 526.68C769.614 526.483 770.033 525.906 770.032 525.257L769.77 466.719C769.767 465.713 768.785 465.002 767.826 465.31L754.158 469.696C753.542 469.893 753.123 470.466 753.123 471.112" fill="white"/>
<path fill-rule="evenodd" clip-rule="evenodd" d="M834.101 490.047L808.199 453.795C807.827 453.274 807.162 453.049 806.549 453.237L791.823 457.762C790.861 458.058 790.462 459.208 791.039 460.037L824.792 508.518C825.154 509.042 825.814 509.276 826.429 509.096L843.426 504.165C843.829 504.049 844.163 503.766 844.347 503.389L877.458 435.749C878.019 434.602 876.972 433.326 875.737 433.655L857.942 438.381C857.507 438.497 857.149 438.8 856.967 439.21L834.101 490.047" fill="white"/>
<path fill-rule="evenodd" clip-rule="evenodd" d="M915.608 457.765C929.928 454.856 944.792 451.711 960.31 449.321C961.034 449.211 961.573 448.591 961.573 447.858V437.606C961.573 436.7 960.778 436 959.883 436.129C945.102 438.238 922.969 442.909 915.608 444.494V438.054C915.608 438.054 941.192 432.189 963.912 429.053C964.648 428.953 965.188 428.328 965.188 427.587V416.534C965.188 415.629 964.395 414.927 963.498 415.052C936.387 418.804 906.253 426.044 900.099 427.554C899.432 427.718 898.964 428.316 898.964 429L898.961 487.7C898.961 488.659 899.854 489.369 900.788 489.149C908.803 487.267 941.457 479.723 963.931 476.51C964.665 476.405 965.195 475.783 965.195 475.04C965.195 470.741 965.195 464.957 965.195 462.132C965.195 461.231 964.409 460.533 963.519 460.655C944.725 463.207 915.608 469.801 915.608 469.801V457.765" fill="white"/>
<path fill-rule="evenodd" clip-rule="evenodd" d="M1014.07 425.931C1014.07 423.794 1019.65 422.085 1027.12 422.085C1035.2 422.085 1045.59 425.489 1055.24 430.707C1056.14 431.197 1057.26 430.665 1057.42 429.647C1058.24 424.534 1059.16 419.171 1059.54 416.941C1059.65 416.302 1059.35 415.659 1058.77 415.36C1048.95 410.24 1037.15 407.375 1027.11 407.375C1010.86 407.375 996.09 415.226 996.09 427.147C996.09 445.179 1043.81 445.906 1043.81 452.777C1043.81 455.243 1039.24 457.335 1028.56 457.335C1019.02 457.335 1006.29 454.729 996.861 449.917C995.95 449.453 994.856 450.062 994.733 451.077L992.963 465.703C992.875 466.431 993.322 467.115 994.025 467.314C998.449 468.573 1014.19 472.74 1028.56 472.74C1045.48 472.74 1062.14 466.619 1062.14 452.519C1062.14 434.242 1014.07 432.901 1014.07 425.931" fill="white"/>
<path fill-rule="evenodd" clip-rule="evenodd" d="M1023.44 514.395C850.162 514.395 465.711 703.565 289.739 703.565C246.211 703.565 222.241 695.044 195.128 674.574C193.995 673.716 192.271 674.426 192.234 675.848C191.466 705.302 236.142 719.998 282.078 719.998C460.606 719.998 848.682 527.531 1008.18 527.531C1071.27 527.531 1100.08 545.399 1100.08 565.083C1100.08 596.709 1030.94 628.538 973.32 628.538C938.472 628.538 918.249 619.208 918.249 606.942C918.249 591.038 943.546 578.054 974.825 578.054C1001.64 578.054 1018.9 584.271 1028.66 590.317C1030.13 591.226 1031.93 589.858 1031.47 588.2C1028.07 576.169 1019.57 546.053 1018.41 542.005C1017.5 538.803 1013.67 539.529 1014.11 542.807C1014.79 547.913 1017.48 571.208 1017.48 571.208C1007.05 565.994 991.823 563.947 974.537 563.947C951.648 563.947 923.473 573.171 911.891 588.26C908.033 577.897 904.272 567.293 901.294 559.315C900.159 556.276 897.041 557.336 897.611 560.266C898.547 565.087 903.209 597.806 905.255 610.293C908.152 627.958 929.206 639.615 973.685 639.615C1029.29 639.615 1117.83 612.44 1117.83 563.601C1117.83 531.041 1068.07 514.395 1023.44 514.395" fill="white"/>
<path fill-rule="evenodd" clip-rule="evenodd" d="M325.859 236.491L268.803 496.033C268.612 496.892 269.282 497.701 270.162 497.661C274.226 497.481 284.542 496.986 291.457 496.326C292.035 496.272 292.496 495.857 292.622 495.289C315.64 391.483 348.789 238.226 352.681 220.285C352.868 219.417 352.177 218.609 351.291 218.659C277.666 222.827 199.18 278.453 199.18 351.129C199.18 379.238 217.579 392.541 236.398 388.226C237.539 387.965 238.053 386.614 237.472 385.598C205.095 329.207 252.751 255.19 325.859 236.491" fill="white"/>
<path fill-rule="evenodd" clip-rule="evenodd" d="M229.603 417.896C228.625 417.217 227.269 417.629 226.853 418.746C219.844 437.555 233.257 454.112 260.735 454.112C300.417 454.112 346.236 436.394 378.431 436.394C388.308 436.394 398.038 440.761 402.594 447.714C415.928 436.007 410.72 413.718 386.088 413.718C350.565 413.718 312.057 428.44 267.336 428.44C251.307 428.44 240.467 425.428 229.603 417.896" fill="white"/>
<path fill-rule="evenodd" clip-rule="evenodd" d="M336.03 488.653L406.261 167.603C330.165 192.318 258.409 195.869 251.883 168.481C251.604 167.309 252.587 166.135 253.779 166.318C300.531 173.522 364.189 168.959 425.193 149.366C430.728 147.59 433.354 149.891 431.96 156.062C422.144 199.556 364.575 467.727 360.876 485.122C360.765 485.649 360.36 486.052 359.832 486.156C352.44 487.585 342.98 489.334 337.564 490.262C336.627 490.423 335.827 489.583 336.03 488.653" fill="white"/>
<path fill-rule="evenodd" clip-rule="evenodd" d="M430.183 444.571C426.112 444.571 423.61 439.908 423.61 431.444C423.61 403.121 441.263 353.468 453.97 353.468C458.089 353.468 460.607 357.614 460.607 365.608C460.607 394.624 440.768 444.571 430.183 444.571ZM479.226 417.439C479.226 401.59 488.165 363.679 502.719 319.732C503.06 318.698 502.106 317.703 501.063 318.013L477.143 325.162C476.676 325.301 476.323 325.682 476.217 326.158L472.444 343.287C468.574 336.043 462.681 331.51 456.058 331.51C424.242 331.51 400.515 393.583 400.515 440.441C400.515 458.727 408.695 472.236 422.93 472.236C435.376 472.236 446.377 458.59 455.035 440.727C454.688 451.987 460.023 459.312 468.422 459.312C476.745 459.312 484.719 450.91 487.628 440.315C487.843 439.532 487.507 438.68 486.809 438.265C480.854 434.725 479.226 429.034 479.226 417.439V417.439Z" fill="white"/>
<path fill-rule="evenodd" clip-rule="evenodd" d="M480.506 504.43C480.506 504.43 491.991 453.229 502.812 405.123C511.773 365.293 519.639 331.637 521.406 312.555C521.454 312.025 521.802 311.592 522.308 311.43C526.673 310.029 535.791 307.215 539.3 306.082C540.063 305.837 540.861 306.314 541.019 307.101L542.621 315.175L500.112 507.855C499.87 508.953 499.101 509.871 498.031 510.219C430.223 532.279 330.672 558.68 260.613 556.303C221.9 554.987 197.485 545.307 197.556 520.48C197.559 519.095 199.239 518.374 200.383 519.153C225.721 536.369 249.815 541.496 289.144 541.496C336.137 541.496 422.356 525.661 480.506 504.43" fill="white"/>
<path fill-rule="evenodd" clip-rule="evenodd" d="M532.563 373.795C540.021 339.944 551.389 320.322 560.855 320.322C565.108 320.322 567.716 326.371 567.716 335.143C567.716 359.691 552.431 412.525 536.71 412.525C528.113 412.525 527.838 395.244 532.563 373.795C528.761 375.021 520.103 377.859 520.103 377.859C514.562 403.325 514.118 438.884 534.721 438.884C564.971 438.884 588.02 372.33 588.02 329.526C588.02 307.942 577.776 296.953 566.858 296.953C549.936 296.953 533.273 320.949 520.103 377.859L532.563 373.795" fill="white"/>
<path fill-rule="evenodd" clip-rule="evenodd" d="M596.897 467.315L637.388 283.922L635.594 276.142C635.417 275.378 634.633 274.928 633.886 275.167C630.47 276.268 621.558 279.26 616.94 280.807C616.415 280.981 616.065 281.449 616.037 282.003C615.165 300.666 606.467 334.244 597.31 374.924C586.815 421.547 575.359 472.576 572.812 483.916C572.584 484.937 573.548 485.808 574.54 485.473C686.351 447.735 911.41 364.41 1027.74 364.41C1058.57 364.41 1088.58 369.835 1111.7 384.756C1112.87 385.511 1114.38 384.747 1114.49 383.36C1116.1 362.949 1082.55 347.917 1030.45 347.917C919.782 347.917 719.956 419.341 596.897 467.315" fill="white"/>
<path fill-rule="evenodd" clip-rule="evenodd" d="M626.525 343.309C633.984 309.457 645.984 289.726 655.452 289.726C659.705 289.726 662.311 295.772 662.311 304.544C662.311 329.095 647.026 381.93 631.306 381.93C622.708 381.93 621.801 364.756 626.525 343.309C622.722 344.533 614.068 347.451 614.068 347.451C608.527 372.919 608.714 408.286 629.316 408.286C659.566 408.286 682.615 341.732 682.615 298.927C682.615 277.343 672.371 266.356 661.454 266.356C644.531 266.356 627.238 290.543 614.068 347.451L626.525 343.309" fill="white"/>
<path fill-rule="evenodd" clip-rule="evenodd" d="M812.95 321.789C812.95 301.734 828.086 269.565 828.086 246.469C828.086 227.995 820.905 219.597 809.605 219.597C799.504 219.597 787.839 227.033 781.254 241.927L780.166 229.233C780.094 228.39 779.268 227.822 778.455 228.061C775.998 228.78 770.556 230.553 760.944 233.522C760.447 233.675 760.075 234.094 760.004 234.61C754.603 273.842 734.919 357.236 731.184 372.268C730.929 373.289 731.901 374.179 732.901 373.854L755.1 366.65C755.552 366.505 755.888 366.143 755.994 365.683C758.269 355.553 782.793 244.146 800.656 244.146C804.223 244.146 805.674 248.085 805.674 253.006C805.674 267.91 787.38 310.065 787.38 333.479C787.38 346.008 792.994 353.182 801.955 353.182C811.374 353.182 817.795 345.302 820.058 338.156C820.294 337.415 819.961 336.636 819.339 336.171C815.307 333.165 812.95 328.36 812.95 321.789" fill="white"/>
<path fill-rule="evenodd" clip-rule="evenodd" d="M710.098 274.455C709.663 274.596 709.333 274.935 709.217 275.377C703.807 296.097 693.214 346.116 690.879 358.274C688.029 373.113 692.653 383.56 704.086 383.56C712.167 383.56 719.644 376.808 723.007 369.832C723.407 369.004 723.185 367.979 722.418 367.47C717.08 363.927 714.477 358.185 714.477 351.164C714.477 334.004 729.602 281.427 733.137 269.197C733.434 268.165 732.454 267.224 731.433 267.555L710.098 274.455" fill="white"/>
<path fill-rule="evenodd" clip-rule="evenodd" d="M741.968 238.345C740.037 249.634 732.356 259.352 724.809 260.05C717.265 260.748 712.716 252.162 714.647 240.874C716.579 229.585 724.262 219.867 731.807 219.167C739.351 218.471 743.902 227.056 741.968 238.345" fill="white"/>
<path fill-rule="evenodd" clip-rule="evenodd" d="M866.065 333.903C847.766 333.903 836.592 317.099 836.592 297.349C836.592 246.18 874.215 191.543 908.935 191.543C919.534 191.543 928.926 199.117 928.926 217.043C928.926 249.193 898.109 282.338 859.725 291.006C859.725 291.006 859.417 289.372 859.725 286.714C860.106 283.421 861.793 273.155 861.793 273.155C886.343 263.24 904.509 236.034 904.509 222.513C904.509 216.675 902.625 214.767 899.628 214.767C887.54 214.767 859.725 257.37 859.725 291.006C859.725 301.364 863.613 308.795 871.597 308.795C879.474 308.795 888.26 299.907 890.717 288.038C890.84 287.443 891.233 286.916 891.806 286.714C898.064 284.485 905.444 287.619 905.444 297.342C905.444 314.402 884.364 333.903 866.065 333.903Z" fill="white"/>
<path fill-rule="evenodd" clip-rule="evenodd" d="M969.232 279.193C969.232 264.826 945.274 253.027 945.274 221.568C945.274 194.401 963.318 177.023 982.598 177.023C999.546 177.023 1007.63 189.565 1007.63 205.187C1007.63 217.93 1002.59 225.93 1004.61 235.419C1004.72 235.924 1004.56 236.465 1004.16 236.79C995.205 243.962 981.86 241.012 981.86 226.491C981.86 218.647 985.547 213.835 985.547 207.419C985.547 203.234 983.462 199.794 978.871 199.794C971.181 199.794 966.278 208.813 966.278 220.283C966.278 244.939 990.752 256.504 990.752 278.261C990.752 301.135 973.273 314.396 955.829 314.396C943.293 314.396 931.264 304.981 931.264 289.684C931.264 278.076 939.094 269.08 950.176 269.524C951.383 269.572 952.21 270.76 951.868 271.906C948.664 282.627 952.64 290.088 959.786 290.088C965.495 290.088 969.232 285.816 969.232 279.193" fill="white"/>
<path fill-rule="evenodd" clip-rule="evenodd" d="M1047.38 271.592C1047.38 257.227 1023.42 245.428 1023.42 213.969C1023.42 186.802 1041.47 169.422 1060.75 169.422C1077.7 169.422 1085.78 181.966 1085.78 197.588C1085.78 210.331 1080.74 218.33 1082.77 227.821C1082.87 228.325 1082.71 228.865 1082.31 229.191C1073.35 236.363 1060.01 233.412 1060.01 218.891C1060.01 211.047 1063.7 206.235 1063.7 199.82C1063.7 195.635 1061.61 192.194 1057.02 192.194C1049.33 192.194 1044.43 201.214 1044.43 212.682C1044.43 237.34 1068.9 248.903 1068.9 270.662C1068.9 293.536 1051.42 306.794 1033.98 306.794C1021.44 306.794 1009.41 297.38 1009.41 282.085C1009.41 270.477 1017.24 261.481 1028.33 261.924C1029.53 261.973 1030.36 263.161 1030.02 264.305C1026.81 275.027 1030.79 282.487 1037.94 282.487C1043.65 282.487 1047.38 278.218 1047.38 271.592" fill="white"/>
<path fill-rule="evenodd" clip-rule="evenodd" d="M984.838 138.64C975.799 138.023 967.286 136.73 958.719 132.197C971.515 116.621 979.984 97.7316 979.984 81.4705C979.984 43.8799 954.681 10.4277 898.599 10.4277C828.789 10.4277 688.747 69.5833 572.39 109.193C569.772 110.085 567.66 112.033 566.559 114.569L564.352 119.645C563.994 120.469 564.768 121.335 565.622 121.052C669.459 86.8366 827.823 26.9226 896.128 26.9226C938.26 26.9226 961.957 49.3638 961.957 83.5172C961.957 96.1923 956.327 110.734 947.448 124.102C939.308 116.351 934.167 106.45 931.45 99.8632C930.951 98.6511 929.083 99.0511 928.918 100.351L920.939 163.666C920.747 165.197 922.267 166.373 923.701 165.8L985.068 141.225C986.318 140.726 986.183 138.732 984.838 138.64" fill="white"/>
<path fill-rule="evenodd" clip-rule="evenodd" d="M537.187 153.881C537.187 135.77 529.262 123.973 510.878 123.973C474.934 123.973 438.684 189.825 438.684 245.581C438.684 275.432 454.05 290.817 474.079 290.817C494.109 290.817 514.414 271.728 514.414 256.774C514.414 250.383 508.807 244.336 502.817 243.337C501.87 243.179 500.999 243.843 500.793 244.779C498.024 257.34 489.032 267.201 479.156 267.201C467.86 267.201 461.012 258.97 461.012 241.169C461.012 199.611 489.81 147.112 506.457 147.112C512.31 147.112 515.238 152.418 515.238 159.733C515.238 173.453 502.684 187.324 502.684 206.013C502.684 220.799 513.593 226.103 522.356 224.394C523.331 224.203 524.026 223.232 523.766 222.272C519.283 205.739 537.187 177.683 537.187 153.881" fill="white"/>
<path fill-rule="evenodd" clip-rule="evenodd" d="M563.612 210.778C570.876 178.09 584.448 166.923 591.362 166.923C594.325 166.923 595.959 169.46 595.959 173.096C595.959 187.929 581.394 208.129 562.471 215.944L563.612 210.778ZM614.412 166.831C614.412 154.027 607.657 147.628 599.079 147.628C591.056 147.628 581.477 153.812 572.461 163.851L572.274 158.229C572.243 157.337 571.369 156.723 570.52 156.998L556.662 161.497C556.214 161.642 555.875 162.013 555.769 162.471L530.803 271.018C530.569 272.031 531.527 272.912 532.517 272.596L550.54 266.849C550.993 266.703 551.338 266.326 551.44 265.86L557.831 236.948C561.033 235.767 564.174 234.392 567.234 232.835C566.16 247.495 573.817 255.311 586.011 255.311C593.699 255.311 599.384 250.677 602.284 244.17C602.732 243.161 602.19 241.912 601.108 241.687C590.315 239.453 582.742 233.918 583.434 222.351C601.78 207.665 614.412 186.679 614.412 166.831V166.831Z" fill="white"/>
<path fill-rule="evenodd" clip-rule="evenodd" d="M680.734 155.138C674.705 157.14 658.184 162.624 650.894 165.045L654.546 148.529C654.546 148.529 674.322 141.792 686.313 137.807C686.757 137.66 687.081 137.298 687.186 136.843L691.295 119.338C691.532 118.317 690.561 117.43 689.567 117.761L640.676 133.982C640.23 134.131 639.894 134.496 639.791 134.955C637.828 143.724 618.852 228.467 615.463 243.601C615.236 244.619 616.208 245.49 617.196 245.161L666.641 228.728C667.091 228.579 667.429 228.205 667.529 227.743L671.41 210.067C671.632 209.051 670.667 208.18 669.678 208.505L639.04 218.642L646.78 183.642L677.99 173.275C678.433 173.128 678.767 172.759 678.873 172.303L682.457 156.714C682.691 155.694 681.727 154.808 680.734 155.138" fill="white"/>
<path fill-rule="evenodd" clip-rule="evenodd" d="M910.975 52.7111C898.79 55.2634 874.989 61.3932 863.033 64.4407C862.539 64.5654 862.158 64.9394 862.047 65.4364C860.015 74.5098 841.277 158.162 838.017 172.721C837.797 173.703 838.702 174.582 839.67 174.309C851.893 170.842 876.428 164.331 888.731 161.324C889.226 161.202 889.6 160.794 889.702 160.293C890.589 155.925 893.245 142.818 893.245 142.818C893.442 141.847 892.554 141.005 891.597 141.253L861.31 149.059L869.162 114.653L899.396 107.051C899.884 106.93 900.261 106.542 900.376 106.052L903.889 90.7658C904.112 89.7909 903.238 88.9216 902.27 89.1606C896.582 90.5632 880.857 94.4419 873.348 96.312L877.148 79.7062C877.148 79.7062 893.496 75.5228 908.059 71.8951C908.543 71.7739 908.905 71.3739 909.011 70.8874L912.604 54.2972C912.815 53.3293 911.944 52.5068 910.975 52.7111" fill="white"/>
<path fill-rule="evenodd" clip-rule="evenodd" d="M745.849 133.944C745.039 138.375 743.675 144.77 739.451 163.325C733.474 165.31 723.895 168.49 717.143 170.731C720.619 155.609 722.91 146.022 724.056 140.978C726.915 128.403 730.973 122.008 737.183 121.148C742.783 120.372 747.306 125.974 745.849 133.944ZM740.224 101.288C720.924 103.629 710.294 117.196 704.107 142.195C700.644 156.189 694.138 184.133 685.861 220.283C685.628 221.301 686.594 222.195 687.586 221.868L706.216 215.728C706.661 215.58 706.994 215.225 707.099 214.768C707.598 212.6 710.339 200.24 712.349 191.506L734.603 184.36C733.41 189.474 731.016 200.159 729.653 205.934C729.412 206.95 730.371 207.851 731.364 207.53L749.554 201.681C750 201.537 750.336 201.179 750.447 200.724C751.761 195.215 760.184 159.763 763.934 140.091C768.855 114.287 758.109 99.1187 740.224 101.288V101.288Z" fill="white"/>
<path fill-rule="evenodd" clip-rule="evenodd" d="M838.931 90.6387C839.779 87.1167 842.281 76.8884 843.513 71.4859C843.693 70.6998 842.969 70.0175 842.193 70.2444C832.988 72.9595 789.479 85.8077 782.497 87.87C781.91 88.0431 781.464 88.5158 781.322 89.1132L777.098 106.896C776.852 107.928 777.848 108.824 778.849 108.47L799.096 101.3L778.233 190.451C777.995 191.457 778.941 192.341 779.929 192.039L799.224 186.129C799.692 185.987 800.043 185.6 800.144 185.12L818.73 95.5893L837.906 91.6275C838.411 91.5236 838.808 91.1409 838.931 90.6387" fill="white"/>
<path fill-rule="evenodd" clip-rule="evenodd" d="M763.53 621.586C748.193 645.09 745.026 674.936 761.585 694.414C762.427 695.406 761.715 696.992 760.432 697.193C732.959 701.481 727.298 662.491 746.351 636.753C690.376 675.607 592.11 741.54 559.639 707.439C558.59 706.338 559.329 704.493 560.848 704.414C622.861 701.209 725.745 643.586 760.286 618.604C763.332 616.402 765.15 619.101 763.53 621.586" fill="white"/>
<path fill-rule="evenodd" clip-rule="evenodd" d="M342.072 114.325C420.893 116.974 653.429 15.5183 721.983 14.8568C723.188 14.8447 724.063 13.643 723.657 12.5106C720.539 3.76962 710.388 0 694.976 0C628.593 0 475.77 110.929 306.772 93.0336C305.543 92.9038 304.561 94.0968 304.894 95.2881C308.466 108.093 323.993 114.325 342.072 114.325" fill="white"/>
<path fill-rule="evenodd" clip-rule="evenodd" d="M1151.52 383.645C1147.19 384.216 1147.23 388.253 1151.63 388.547C1160.2 389.125 1284.97 396.68 1284.97 396.68C1295.94 397.345 1306.54 392.625 1313.4 384.042C1316.09 380.67 1317.59 378.71 1318.73 377.037C1319.44 376.014 1318.66 374.632 1317.42 374.71C1294.96 376.116 1161.53 382.319 1151.52 383.645" fill="white"/>
<path fill-rule="evenodd" clip-rule="evenodd" d="M1162.28 314.285C1159.51 315.296 1159.98 319.921 1163.78 319.017C1190.95 312.546 1265.44 296.277 1287 291.562C1288.03 291.335 1288.37 290.038 1287.59 289.321C1278.84 281.278 1269.54 273.626 1251.94 279.998C1233.1 286.822 1182.65 306.836 1162.28 314.285" fill="white"/>
<path fill-rule="evenodd" clip-rule="evenodd" d="M1162.66 447.404C1158.98 446.239 1157.88 449.778 1161.44 451.378C1187.01 462.886 1236.24 485.292 1250.5 491.512C1263.21 497.051 1275.63 491.417 1279.87 487.017C1280.53 486.333 1280.24 485.199 1279.34 484.892C1239.29 471.275 1185.99 454.791 1162.66 447.404" fill="white"/>
<path fill-rule="evenodd" clip-rule="evenodd" d="M1153.82 261.766C1151.52 263.808 1153.39 266.68 1156.23 265.363C1156.71 265.139 1230.23 221.838 1242.33 214.652C1243.15 214.162 1243.18 212.998 1242.4 212.446C1233.15 205.863 1220.39 203.669 1211.44 211.646C1196.26 225.182 1168.21 249.008 1153.82 261.766" fill="white"/>
<path fill-rule="evenodd" clip-rule="evenodd" d="M1153.9 518.224C1156.76 521.051 1184.08 548.045 1192.86 557.002C1201.02 565.333 1214.39 566.869 1222.55 562.644C1223.41 562.197 1223.48 560.987 1222.69 560.431C1194.53 540.703 1159.58 517.086 1156.07 514.626C1153.15 512.582 1151.04 515.396 1153.9 518.224" fill="white"/>
<path fill-rule="evenodd" clip-rule="evenodd" d="M167.481 387.804C171.804 387.231 171.765 383.197 167.372 382.9C158.802 382.324 34.0253 374.769 34.0253 374.769C23.0628 374.104 12.4552 378.824 5.60166 387.408C2.90908 390.779 1.40954 392.739 0.264975 394.412C-0.436309 395.435 0.341164 396.817 1.58097 396.739C24.0394 395.333 157.467 389.131 167.481 387.804" fill="white"/>
<path fill-rule="evenodd" clip-rule="evenodd" d="M156.724 457.163C159.486 456.152 159.02 451.527 155.225 452.431C128.048 458.902 53.5626 475.172 32.0046 479.887C30.9692 480.113 30.6298 481.41 31.4107 482.127C40.162 490.169 49.4623 497.822 67.0567 491.45C85.8979 484.626 136.351 464.612 156.724 457.163" fill="white"/>
<path fill-rule="evenodd" clip-rule="evenodd" d="M156.341 324.042C160.024 325.209 161.116 321.67 157.561 320.07C131.993 308.562 82.7628 286.155 68.4947 279.936C55.7885 274.396 43.3697 280.031 39.1256 284.431C38.4676 285.113 38.7551 286.249 39.6538 286.554C79.7066 300.172 133.004 316.657 156.341 324.042" fill="white"/>
<path fill-rule="evenodd" clip-rule="evenodd" d="M165.178 509.681C167.481 507.638 165.608 504.766 162.771 506.085C162.29 506.308 88.7693 549.608 76.6691 556.796C75.8466 557.284 75.8223 558.448 76.6015 559.002C85.8498 565.583 98.6115 567.779 107.558 559.8C122.741 546.266 150.785 522.44 165.178 509.681" fill="white"/>
<path fill-rule="evenodd" clip-rule="evenodd" d="M165.102 253.224C162.241 250.395 134.913 223.401 126.138 214.444C117.98 206.115 104.611 204.579 96.4484 208.804C95.586 209.249 95.5185 210.461 96.3116 211.017C124.47 230.745 159.42 254.362 162.93 256.822C165.844 258.864 167.962 256.052 165.102 253.224" fill="white"/>
<path fill-rule="evenodd" clip-rule="evenodd" d="M882.439 653.623C882.439 666.495 877.425 678.603 868.322 687.702C859.217 696.81 847.115 701.825 834.239 701.825C821.367 701.825 809.262 696.81 800.157 687.702C791.058 678.603 786.043 666.495 786.043 653.623C786.043 640.747 791.058 628.645 800.157 619.541C809.262 610.438 821.367 605.425 834.239 605.425C847.115 605.425 859.217 610.438 868.322 619.541C877.425 628.645 882.439 640.747 882.439 653.623" fill="#62AC44"/>
<path fill-rule="evenodd" clip-rule="evenodd" d="M882.439 653.623C882.439 666.495 877.425 678.603 868.322 687.702C859.217 696.81 847.115 701.825 834.239 701.825C821.367 701.825 809.262 696.81 800.157 687.702C791.058 678.603 786.043 666.495 786.043 653.623C786.043 640.747 791.058 628.645 800.157 619.541C809.262 610.438 821.367 605.425 834.239 605.425C847.115 605.425 859.217 610.438 868.322 619.541C877.425 628.645 882.439 640.747 882.439 653.623Z" stroke="white" stroke-width="1.84"/>
<path fill-rule="evenodd" clip-rule="evenodd" d="M834.24 701.825C821.367 701.825 809.262 696.81 800.157 687.702C791.058 678.603 786.043 666.496 786.043 653.623C786.043 640.747 791.058 628.645 800.157 619.541C809.262 610.438 821.367 605.425 834.24 605.425C847.116 605.425 859.217 610.438 868.322 619.541C877.425 628.645 882.44 640.747 882.44 653.623C882.44 666.496 877.425 678.603 868.322 687.702C859.217 696.81 847.116 701.825 834.24 701.825ZM834.241 599.734C804.479 599.734 780.35 623.858 780.35 653.624C780.35 683.388 804.479 707.519 834.241 707.519C864.007 707.519 888.136 683.388 888.136 653.624C888.136 623.858 864.007 599.734 834.241 599.734V599.734Z" fill="white"/>
<path fill-rule="evenodd" clip-rule="evenodd" d="M853.841 673.401C855.909 680.08 852.946 682.147 839.651 684.818L839.412 684.857C826.003 686.899 822.512 685.969 822.172 678.984C821.98 675.379 818.425 670.485 815.98 666.711C815.411 665.819 814.895 664.986 814.498 664.255C814.301 663.89 814.126 663.531 813.967 663.182L813.944 663.185C812.789 660.738 812.268 658.482 812.171 656.307C815.722 649.045 819.729 634.263 817.336 630.992C821.185 628.521 831.975 624.182 836.551 624.131C835.429 624.659 834.751 625.406 834.834 626.403C835.242 631.484 840.253 637.935 842.749 642.313C845.933 647.875 839.821 648.24 840.955 654.669C842.087 661.083 848.794 660.934 855.462 659.758C854.456 664.144 852.785 669.949 853.841 673.401" fill="#FFFFFE"/>
<path fill-rule="evenodd" clip-rule="evenodd" d="M812.169 656.307C811.347 657.999 810.538 659.277 809.849 659.91C809.373 658.991 808.938 657.777 808.097 657.169C807.681 658.601 807.254 660.025 806.815 661.458C802.84 656.785 790.442 649.199 795.209 641.012C797.333 637.343 801.162 634.887 804.639 632.763C809.276 629.908 811.607 629.049 816.517 630.391C816.843 630.477 817.127 630.682 817.335 630.991C819.728 634.262 815.721 649.045 812.169 656.307" fill="#10271F"/>
<path fill-rule="evenodd" clip-rule="evenodd" d="M859.68 649.542C858.705 648.95 858.343 646.574 857.805 645.656C857.595 649.265 857.564 652.943 858.05 656.53C857.437 656.26 856.823 656.002 856.208 655.732C856.175 656.113 855.458 659.758 855.458 659.758C848.79 660.934 842.084 661.083 840.951 654.669C839.817 648.24 845.929 647.874 842.745 642.313C840.25 637.935 835.239 631.483 834.83 626.403C834.747 625.406 835.426 624.659 836.548 624.131C839.971 622.469 846.709 622.871 850.944 623.348C855.169 623.826 864.052 625.232 866.61 630.46C868.298 633.911 861.493 650.671 859.68 649.542" fill="#10271F"/>
<path fill-rule="evenodd" clip-rule="evenodd" d="M824.011 658.817C823.526 658.839 823.105 658.455 823.079 657.972C823.053 657.47 823.438 657.051 823.924 657.025C824.423 656.997 824.845 657.383 824.871 657.883C824.897 658.37 824.509 658.787 824.011 658.817ZM817.687 660.332C819.797 664.225 825.759 663.127 826.765 658.665C824.235 653.913 818.095 655.897 817.687 660.332V660.332Z" fill="#10271F"/>
<path fill-rule="evenodd" clip-rule="evenodd" d="M842.159 674.947C842.134 675.441 841.712 675.815 841.217 675.793C840.721 675.758 840.346 675.335 840.372 674.84C840.394 674.347 840.817 673.973 841.312 673.993C841.809 674.03 842.195 674.451 842.159 674.947ZM832.574 677.716C835.135 684.921 843.717 683.217 843.7 675.934C843.681 670.26 830.708 672.424 832.574 677.716V677.716Z" fill="#10271F"/>
<path fill-rule="evenodd" clip-rule="evenodd" d="M848.379 685.091C848.488 685.716 845.858 689.293 840.537 690.234L840.471 690.244C835.15 691.183 831.455 688.719 831.346 688.093C831.284 687.737 831.491 687.399 831.867 687.333C832.439 687.231 835.614 688.253 840.016 687.475C844.419 686.698 847.055 684.655 847.626 684.554C848.005 684.487 848.314 684.734 848.379 685.091" fill="#FFFFFE"/>
</svg>
